<svg version="1.1" xmlns="http://www.w3.org/2000/svg" xmlns:xlink="http://www.w3.org/1999/xlink" width="251.25925" height="332.10641" viewBox="0,0,251.25925,332.10641"><defs><radialGradient cx="258.10034" cy="207.97544" r="16.63197" gradientUnits="userSpaceOnUse" id="color-1"><stop offset="0" stop-color="#93ff52"/><stop offset="1" stop-color="#61ff00"/></radialGradient><radialGradient cx="341.52674" cy="225.22167" r="50.63197" gradientUnits="userSpaceOnUse" id="color-2"><stop offset="0" stop-color="#ff5151"/><stop offset="1" stop-color="#ff0000"/></radialGradient><linearGradient x1="326" y1="205.86801" x2="326" y2="307.13195" gradientUnits="userSpaceOnUse" id="color-3"><stop offset="0" stop-color="#000000"/><stop offset="1" stop-color="#000000" stop-opacity="0"/></linearGradient><linearGradient x1="326" y1="205.86801" x2="326" y2="307.13195" gradientUnits="userSpaceOnUse" id="color-4"><stop offset="0" stop-color="#000000"/><stop offset="1" stop-color="#000000" stop-opacity="0"/></linearGradient></defs><g transform="translate(-193.68266,-14.62555)"><g data-paper-data="{&quot;isPaintingLayer&quot;:true}" fill-rule="nonzero" stroke-linecap="butt" stroke-linejoin="miter" stroke-miterlimit="10" stroke-dasharray="" stroke-dashoffset="0" style="mix-blend-mode: normal"><path d="M197.93266,306.43584c10.5371,-38.67888 52.13897,-191.38817 70.27695,-257.96783c2.87103,-10.53877 6.25129,-19.95307 14.1186,-25.30706c6.51037,-4.43054 16.94289,-5.74082 25.10759,-5.64478c36.06052,0.42415 93.58454,1.10303 114.19405,1.35905c7.29944,0.09068 14.84079,2.68573 18.67222,7.4662c4.34325,5.41908 4.38005,13.49285 2.29844,21.10849c-9.9556,36.42291 -53.95277,196.84921 -72.45726,264.54856c-2.39385,8.75798 -7.07324,19.28157 -14.6907,24.53418c-8.56219,5.90406 -20.41046,6.00053 -28.64505,5.94939c-21.84049,-0.13566 -78.71311,-0.50899 -112.10352,-0.71638c-1.06164,-0.00659 -13.66529,-2.84045 -18.44476,-12.48411c-2.79219,-5.63387 -0.07378,-16.43213 1.67344,-22.8457z" fill="#77d1ff" stroke="#000000" stroke-width="0"/><path d="M198.93266,306.43584c10.5371,-38.67888 52.13897,-191.38817 70.27695,-257.96783c2.87103,-10.53877 6.25129,-19.95307 14.1186,-25.30706c6.51037,-4.43054 16.94289,-5.74082 25.10759,-5.64478c36.06052,0.42415 93.58454,1.10303 114.19405,1.35905c7.29944,0.09068 14.84079,2.68573 18.67222,7.4662c4.34325,5.41908 4.38005,13.49285 2.29844,21.10849c-9.9556,36.42291 -53.95277,196.84921 -72.45726,264.54856c-2.39385,8.75798 -7.07324,19.28157 -14.6907,24.53418c-8.56219,5.90406 -20.41046,6.00053 -28.64505,5.94939c-21.84049,-0.13566 -78.71311,-0.50899 -112.10352,-0.71638c-1.06164,-0.00659 -13.66529,-2.84045 -18.44476,-12.48411c-2.79219,-5.63387 -0.07378,-16.43213 1.67344,-22.8457z" fill="#77d1ff" stroke="#000000" stroke-width="0"/><path d="M197.93266,321.30174c1.92497,-4.15246 1.49839,-11.70248 3.3773,-18.56491c8.40605,-30.70181 18.58818,-79.33388 25.01825,-81.90543c4.08686,-1.63444 164.70812,0.12796 164.70812,0.12796c0,0 -19.00472,84.46812 -25.89308,99.27801c-2.39385,5.14675 -2.07324,15.66441 -9.6907,18.75117c-8.56219,3.4696 -20.41046,3.52629 -28.64505,3.49624c-21.84049,-0.07972 -78.71311,-0.29911 -112.10352,-0.42099c-1.06164,-0.00387 -13.66529,-1.66923 -18.44476,-7.33646c-2.79219,-3.31082 -0.07378,-9.65656 1.67344,-13.42559z" fill="#25da34" stroke="#000000" stroke-width="0"/><path d="M294.23964,230.75153v37.05818h-7.20575v-37.05818z" data-paper-data="{&quot;index&quot;:null}" fill="#000000" stroke="#727272" stroke-width="7.5"/><path d="M236.36803,218.24998c0,-9.18558 7.44639,-16.63197 16.63197,-16.63197c9.18558,0 16.63197,7.44639 16.63197,16.63197c0,9.18558 -7.44639,16.63197 -16.63197,16.63197c-9.18558,0 -16.63197,-7.44639 -16.63197,-16.63197z" fill="url(#color-1)" stroke="none" stroke-width="0"/><path d="M251.69703,214.03688v8.64862h-1.68168v-8.64862z" fill="none" stroke="#ff0000" stroke-width="5"/><path d="M262.78501,214.03688v8.64862h-1.68168v-8.64862z" fill="none" stroke="#ff0000" stroke-width="5"/><path d="M281.73527,225.93014l-14.80818,-9.5l0.5,-5.20575l14.30818,7.5z" data-paper-data="{&quot;index&quot;:null}" fill="#000000" stroke="#727272" stroke-width="7.5"/><path d="M280.81681,239.37813l-2.44908,-15.96796l4.58614,-2.03302l4.67846,20.34013z" data-paper-data="{&quot;index&quot;:null}" fill="#000000" stroke="#727272" stroke-width="7.5"/><g stroke="none" stroke-width="0"><path d="M275.36803,256.49998c0,-27.96326 22.66871,-50.63197 50.63197,-50.63197c27.96326,0 50.63197,22.66871 50.63197,50.63197c0,27.96326 -22.66871,50.63197 -50.63197,50.63197c-27.96326,0 -50.63197,-22.66871 -50.63197,-50.63197z" fill="url(#color-2)"/><path d="M275.36803,256.49998c0,-27.96326 22.66871,-50.63197 50.63197,-50.63197c27.96326,0 50.63197,22.66871 50.63197,50.63197c0,27.96326 -22.66871,50.63197 -50.63197,50.63197c-27.96326,0 -50.63197,-22.66871 -50.63197,-50.63197z" fill="url(#color-3)"/><path d="M275.36803,256.49998c0,-27.96326 22.66871,-50.63197 50.63197,-50.63197c27.96326,0 50.63197,22.66871 50.63197,50.63197c0,27.96326 -22.66871,50.63197 -50.63197,50.63197c-27.96326,0 -50.63197,-22.66871 -50.63197,-50.63197z" fill="url(#color-4)"/></g><path d="M197.93266,306.43584c10.5371,-38.67888 52.13897,-191.38817 70.27695,-257.96783c2.87103,-10.53877 6.25129,-19.95307 14.1186,-25.30706c6.51037,-4.43054 16.94289,-5.74082 25.10759,-5.64478c36.06052,0.42415 93.58454,1.10303 114.19405,1.35905c7.29944,0.09068 14.84079,2.68573 18.67222,7.4662c4.34325,5.41908 4.38005,13.49285 2.29844,21.10849c-9.9556,36.42291 -53.95277,196.84921 -72.45726,264.54856c-2.39385,8.75798 -7.07324,19.28157 -14.6907,24.53418c-8.56219,5.90406 -20.41046,6.00053 -28.64505,5.94939c-21.84049,-0.13566 -78.71311,-0.50899 -112.10352,-0.71638c-1.06164,-0.00659 -13.66529,-2.84045 -18.44476,-12.48411c-2.79219,-5.63387 -0.07378,-16.43213 1.67344,-22.8457z" fill="none" stroke="#000000" stroke-width="8.5"/><path d="M227.86803,266.12498c0,-12.01604 9.74093,-21.75697 21.75697,-21.75697c12.01604,0 21.75697,9.74093 21.75697,21.75697c0,12.01604 -9.74093,21.75697 -21.75697,21.75697c-12.01604,0 -21.75697,-9.74093 -21.75697,-21.75697z" fill="#ffffff" stroke="none" stroke-width="0"/><path d="M247.92053,260.61364v11.31362h-2.19987v-11.31362z" fill="#ffffff" stroke="#ffffff" stroke-width="7.5"/><path d="M262.42518,260.61364v11.31362h-2.19987v-11.31362z" fill="#ffffff" stroke="#ffffff" stroke-width="7.5"/><text transform="translate(283.21397,105.48123) scale(0.97671,0.97671)" font-size="40" xml:space="preserve" fill="#000000" fill-rule="nonzero" stroke="#000000" stroke-width="10" stroke-linecap="butt" stroke-linejoin="miter" stroke-miterlimit="10" stroke-dasharray="" stroke-dashoffset="0" font-family="Pixel" font-weight="normal" text-anchor="start" style="mix-blend-mode: normal"><tspan x="0" dy="0">PLAY</tspan></text><text transform="translate(283.21397,105.48122) scale(0.97671,0.97671)" font-size="40" xml:space="preserve" fill="#ffffff" fill-rule="nonzero" stroke="#ffffff" stroke-width="2" stroke-linecap="butt" stroke-linejoin="miter" stroke-miterlimit="10" stroke-dasharray="" stroke-dashoffset="0" font-family="Pixel" font-weight="normal" text-anchor="start" style="mix-blend-mode: normal"><tspan x="0" dy="0">PLAY</tspan></text></g></g></svg>