<svg version="1.1" xmlns="http://www.w3.org/2000/svg" xmlns:xlink="http://www.w3.org/1999/xlink" width="221.04285" height="181.10641" viewBox="0,0,221.04285,181.10641"><defs><linearGradient x1="319.5" y1="17.51132" x2="319.5" y2="342.48869" gradientUnits="userSpaceOnUse" id="color-1"><stop offset="0" stop-color="#2f2f2f"/><stop offset="1" stop-color="#b1b1b1"/></linearGradient></defs><g transform="translate(-223.50922,-14.62555)"><g data-paper-data="{&quot;isPaintingLayer&quot;:true}" fill-rule="nonzero" stroke-linecap="butt" stroke-linejoin="miter" stroke-miterlimit="10" stroke-dasharray="" stroke-dashoffset="0" style="mix-blend-mode: normal"><path d="M268.20961,48.46802c2.87103,-10.53877 6.25129,-19.95307 14.1186,-25.30706c6.51037,-4.43054 16.94289,-5.74082 25.10759,-5.64478c36.06052,0.42415 93.58454,1.10303 114.19405,1.35905c7.29944,0.09068 14.84079,2.68573 18.67222,7.4662c4.34325,5.41908 4.38005,13.49285 2.29844,21.10849c-9.9556,36.42291 -22.45277,45.84921 -40.95726,113.54856c-2.39385,8.75798 -7.07324,19.28157 -14.6907,24.53418c-8.56219,5.90406 -20.41046,6.00053 -28.64505,5.94939c-21.84049,-0.13566 -78.71311,-0.50899 -112.10352,-0.71638c-1.06164,-0.00659 -13.66529,-2.84045 -18.44476,-12.48411c-2.5065,-5.05742 1.49467,-22.18948 1.67344,-22.8457c0,0 20.63897,-40.38818 38.77695,-106.96784z" fill="url(#color-1)" stroke="#000000" stroke-width="0"/><path d="M268.20961,48.46802c2.87103,-10.53877 6.25129,-19.95307 14.1186,-25.30706c6.51037,-4.43054 16.94289,-5.74082 25.10759,-5.64478c36.06052,0.42415 93.58454,1.10303 114.19405,1.35905c7.29944,0.09068 14.84079,2.68573 18.67222,7.4662c4.34325,5.41908 4.38005,13.49285 2.29844,21.10849c-9.9556,36.42291 -22.45277,45.84921 -40.95726,113.54856c-2.39385,8.75798 -7.07324,19.28157 -14.6907,24.53418c-8.56219,5.90406 -20.41046,6.00053 -28.64505,5.94939c-21.84049,-0.13566 -78.71311,-0.50899 -112.10352,-0.71638c-1.06164,-0.00659 -13.66529,-2.84045 -18.44476,-12.48411c-2.5065,-5.05742 1.49467,-22.18947 1.67344,-22.8457c0,0 20.63897,-40.38818 38.77695,-106.96784z" fill="none" stroke="#000000" stroke-width="8.5"/><g><path d="M375.32969,141.06096c-0.31241,4.08709 -3.62274,9.6232 -5.23986,13.18567c-0.62137,1.36886 -10.71632,1.54818 -11.50483,2.81407c-1.13149,1.81654 -2.42778,3.51979 -3.86796,5.08885c-0.83329,0.90786 9.95492,10.52306 9.02933,11.33702c-2.13006,1.87318 -10.836,9.06814 -13.38403,10.37319c-0.27034,0.13846 -6.28083,-13.66762 -7.47419,-13.25051c-3.5521,1.24153 -9.52652,2.67752 -13.50222,2.67752c-18.98492,0 -34.37525,-15.39032 -34.37525,-34.37524c0,-18.98492 15.39032,-34.37525 34.37525,-34.37525c6.07511,0 11.78214,1.57594 16.73459,4.34129c1.17691,0.65717 9.66817,-6.356 10.75466,-5.56967c3.35014,2.42457 8.02161,6.58007 10.31072,10.03122c0.52738,0.7951 -8.11021,8.20931 -7.64908,9.04898c2.69281,4.90323 4.22437,10.53447 4.22437,16.52343c0,0.89398 11.63555,1.27263 11.56852,2.14944zM353.58205,138.23216c0,-13.13803 -10.65048,-23.78851 -23.78851,-23.78851c-13.13803,0 -23.78851,10.65048 -23.78851,23.78851c0,13.13803 10.65048,23.78851 23.78851,23.78851c13.13803,0 23.78851,-10.65048 23.78851,-23.78851z" data-paper-data="{&quot;index&quot;:null}" fill="#949494" stroke="#000000" stroke-width="0"/><path d="M295.4172,138.91152c0,-5.98895 1.53155,-11.6202 4.22437,-16.52343c0.46114,-0.83967 -8.17646,-8.25387 -7.64908,-9.04898c2.2891,-3.45114 6.96058,-7.60664 10.31072,-10.03122c1.08649,-0.78632 9.57776,6.22684 10.75466,5.56967c2.31545,-1.29291 4.99952,-0.0955 5.39082,-4.66744c0.3965,-4.63271 -0.55574,-12.61197 -0.19906,-12.61197c5.46979,0 10.68034,-0.96305 16.4106,1.18998c0.35031,0.13162 3.36345,16.37604 3.71178,16.51479c13.73058,5.46888 25.7957,16.42785 25.7957,29.60859c0,14.76889 -9.31377,27.36244 -22.38815,32.22745c-1.36797,0.50903 -0.87445,12.09574 -2.31839,12.42918c-2.49564,0.57632 -9.78851,-0.64123 -12.45927,-0.64123c-2.66902,0 -0.40399,-9.27259 -3.53696,-10.07365c-1.53383,-0.39217 -6.00722,-1.83599 -7.17468,-2.24404c-1.19336,-0.41711 -7.20385,13.38897 -7.47419,13.25051c-2.54803,-1.30505 -11.25397,-8.5 -13.38403,-10.37319c-0.92558,-0.81396 9.86262,-10.42915 9.02933,-11.33702c-1.44018,-1.56906 -2.73647,-3.27231 -3.86796,-5.08885c-0.78851,-1.2659 -10.88346,-1.44523 -11.50483,-2.81407c-1.61713,-3.56246 -4.92746,-9.09858 -5.23986,-13.18567c-0.06702,-0.87681 11.56852,-1.25545 11.56852,-2.14944zM329.38484,162.02067c13.13803,0 23.78851,-10.65048 23.78851,-23.78851c0,-13.13803 -10.65048,-23.78851 -23.78851,-23.78851c-13.13803,0 -23.78851,10.65048 -23.78851,23.78851c0,13.13803 10.65048,23.78851 23.78851,23.78851z" fill="#949494" stroke="#000000" stroke-width="0"/><path d="M329.79354,162.02067c-13.13803,0 -23.78851,-10.65048 -23.78851,-23.78851c0,-13.13803 10.65048,-23.78851 23.78851,-23.78851c13.13803,0 23.78851,10.65048 23.78851,23.78851c0,13.13803 -10.65048,23.78851 -23.78851,23.78851z" data-paper-data="{&quot;index&quot;:null}" fill="none" stroke="#000000" stroke-width="5"/><path d="M295.4172,138.91152c0,-5.98895 1.53155,-11.6202 4.22437,-16.52343c0.46114,-0.83967 -8.17646,-8.25387 -7.64908,-9.04898c2.2891,-3.45114 6.96058,-7.60664 10.31072,-10.03122c1.08649,-0.78632 9.57776,6.22684 10.75466,5.56967c2.31545,-1.29291 4.99952,-0.0955 5.39082,-4.66744c0.3965,-4.63271 -0.55574,-12.61197 -0.19906,-12.61197c5.46979,0 10.68034,-0.96305 16.4106,1.18998c5.71623,2.14776 -1.81289,9.26534 2.19119,12.79193c2.61728,2.30517 8.43564,2.78536 12.48443,1.4576c3.85711,-1.2649 5.94208,-4.35633 8.65997,-1.76833c1.7773,1.69236 6.96182,3.3958 7.87051,7.33611c0.63064,2.7346 -6.31679,6.16642 -6.55934,9.44283c-0.49346,6.66589 4.86072,13.3523 4.86072,16.86324c0,0.26452 10.94069,0.86605 10.6389,1.72742c-1.07589,3.07087 2.44924,7.75257 -4.01273,13.93101c-2.74941,2.62877 -6.15008,-0.64228 -10.71338,1.96888c-1.13225,0.64789 -3.49895,4.22201 -2.92122,6.34988c1.42171,5.23633 8.38007,11.33593 5.81062,13.66516c-1.65147,1.49707 -8.23727,8.38849 -13.70955,6.31654c-3.66769,-1.38869 -6.95165,-11.92834 -7.48079,-11.73144c-1.36797,0.50903 -0.87445,12.09574 -2.31839,12.42918c-2.49564,0.57632 -9.78851,-0.64123 -12.45927,-0.64123c-2.66902,0 -0.40399,-9.27259 -3.53696,-10.07365c-1.53383,-0.39217 -6.00722,-1.83599 -7.17468,-2.24404c-1.19336,-0.41711 -7.20385,13.38897 -7.47419,13.25051c-2.54803,-1.30505 -11.25397,-8.5 -13.38403,-10.37319c-0.92558,-0.81396 9.86262,-10.42915 9.02933,-11.33702c-1.44018,-1.56906 -2.73647,-3.27231 -3.86796,-5.08885c-0.78851,-1.2659 -10.88346,-1.44523 -11.50483,-2.81407c-1.61713,-3.56246 -4.92746,-9.09858 -5.23986,-13.18567c-0.06702,-0.87681 11.56852,-1.25545 11.56852,-2.14944zM329.38484,162.02067c13.13803,0 23.78851,-10.65048 23.78851,-23.78851c0,-13.13803 -10.65048,-23.78851 -23.78851,-23.78851c-13.13803,0 -23.78851,10.65048 -23.78851,23.78851c0,13.13803 10.65048,23.78851 23.78851,23.78851z" fill="none" stroke="#3f3232" stroke-width="5"/></g><g font-family="Pixel" font-weight="normal" font-size="40" text-anchor="start"><text transform="translate(272.70937,81.74062) scale(0.71668,0.71668)" font-size="40" xml:space="preserve" fill="#000000" fill-rule="nonzero" stroke="#000000" stroke-width="10" stroke-linecap="butt" stroke-linejoin="miter" stroke-miterlimit="10" stroke-dasharray="" stroke-dashoffset="0" font-family="Pixel" font-weight="normal" text-anchor="start" style="mix-blend-mode: normal"><tspan x="0" dy="0">SETTINGS</tspan></text><text transform="translate(272.70937,81.74064) scale(0.71668,0.71668)" font-size="40" xml:space="preserve" fill="#ffffff" fill-rule="nonzero" stroke="#ffffff" stroke-width="2" stroke-linecap="butt" stroke-linejoin="miter" stroke-miterlimit="10" stroke-dasharray="" stroke-dashoffset="0" font-family="Pixel" font-weight="normal" text-anchor="start" style="mix-blend-mode: normal"><tspan x="0" dy="0">SETTINGS</tspan></text></g></g></g></svg>