<svg version="1.1" xmlns="http://www.w3.org/2000/svg" xmlns:xlink="http://www.w3.org/1999/xlink" width="186.8361" height="153.32699" viewBox="0,0,186.8361,153.32699"><g transform="translate(-197.30177,-201.90605)"><g data-paper-data="{&quot;isPaintingLayer&quot;:true}" fill-rule="nonzero" stroke-linecap="butt" stroke-linejoin="miter" stroke-miterlimit="10" stroke-dasharray="" stroke-dashoffset="0" style="mix-blend-mode: normal"><path d="M235.49205,230.98584c2.40897,-8.84266 5.2452,-16.74181 11.84635,-21.23413c5.46259,-3.71749 14.21609,-4.81689 21.06676,-4.73631c30.25692,0.35589 78.523,0.92551 95.8156,1.14032c6.12466,0.07609 12.45231,2.25349 15.6671,6.26459c3.64425,4.54693 3.67512,11.3213 1.92853,17.71128c-8.35334,30.56099 -18.83921,38.47022 -34.36558,95.274c-2.00858,7.34847 -5.93487,16.17838 -12.32637,20.58564c-7.18419,4.95386 -17.12559,5.0348 -24.0349,4.99189c-18.32547,-0.11383 -66.04498,-0.42707 -94.06153,-0.60109c-0.89078,-0.00553 -11.46599,-2.38331 -15.47625,-10.47491c-2.1031,-4.24348 1.25412,-18.61829 1.40412,-19.1689c0,0 17.31732,-33.88809 32.53617,-89.75238z" fill="none" stroke="#000000" stroke-width="8.5"/><g><path d="M325.37217,308.67682c-0.26213,3.42931 -3.03969,8.07444 -4.39655,11.06356c-0.52137,1.14856 -8.99163,1.29902 -9.65324,2.36117c-0.94939,1.52419 -2.03705,2.95331 -3.24545,4.26985c-0.69918,0.76175 8.35277,8.82947 7.57615,9.51243c-1.78725,1.57171 -9.09205,7.60871 -11.23,8.70372c-0.22683,0.11618 -5.26999,-11.46795 -6.27129,-11.11797c-2.98042,1.04172 -7.99332,2.2466 -11.32917,2.2466c-15.92948,0 -28.84288,-12.91339 -28.84288,-28.84287c0,-15.92948 12.91339,-28.84288 28.84288,-28.84288c5.09738,0 9.88592,1.32231 14.04132,3.6426c0.9875,0.5514 8.11217,-5.33306 9.0238,-4.67328c2.81097,2.03436 6.73061,5.52107 8.65131,8.41679c0.4425,0.66714 -6.80495,6.8881 -6.41803,7.59263c2.25943,4.1141 3.5445,8.83905 3.5445,13.86414c0,0.7501 9.76292,1.06781 9.70668,1.80351zM307.12461,306.30329c0,-11.02359 -8.93639,-19.95998 -19.95998,-19.95998c-11.02359,0 -19.95998,8.93639 -19.95998,19.95998c0,11.02359 8.93639,19.95998 19.95998,19.95998c11.02359,0 19.95998,-8.93639 19.95998,-19.95998z" data-paper-data="{&quot;index&quot;:null}" fill="#949494" stroke="#000000" stroke-width="0"/><path d="M258.32084,306.87332c0,-5.02509 1.28506,-9.75004 3.5445,-13.86414c0.38692,-0.70453 -6.86054,-6.92549 -6.41803,-7.59263c1.92069,-2.89571 5.84034,-6.38242 8.65131,-8.41679c0.91163,-0.65977 8.03631,5.22469 9.0238,4.67328c1.9428,-1.08483 4.19489,-0.08013 4.52322,-3.91626c0.33269,-3.88712 -0.4663,-10.58219 -0.16702,-10.58219c4.58948,0 8.96144,-0.80806 13.76947,0.99846c0.29393,0.11044 2.82213,13.74047 3.1144,13.85689c11.52077,4.58872 21.64413,13.78394 21.64413,24.84337c0,12.39198 -7.81481,22.95872 -18.78499,27.04075c-1.14781,0.42711 -0.73372,10.14905 -1.94527,10.42882c-2.09399,0.48357 -8.21314,-0.53803 -10.45407,-0.53803c-2.23947,0 -0.33897,-7.78025 -2.96772,-8.45239c-1.28697,-0.32905 -5.04042,-1.5405 -6.01998,-1.88288c-1.0013,-0.34998 -6.04446,11.23414 -6.27129,11.11797c-2.13795,-1.09501 -9.44275,-7.13201 -11.23,-8.70372c-0.77662,-0.68296 8.27533,-8.75068 7.57615,-9.51243c-1.2084,-1.31653 -2.29606,-2.74566 -3.24545,-4.26985c-0.66161,-1.06217 -9.13187,-1.21263 -9.65324,-2.36117c-1.35687,-2.98912 -4.13443,-7.63425 -4.39655,-11.06356c-0.05623,-0.7357 9.70668,-1.0534 9.70668,-1.80351zM286.82171,326.26327c11.02359,0 19.95998,-8.93639 19.95998,-19.95998c0,-11.02359 -8.93639,-19.95998 -19.95998,-19.95998c-11.02359,0 -19.95998,8.93639 -19.95998,19.95998c0,11.02359 8.93639,19.95998 19.95998,19.95998z" fill="#949494" stroke="#000000" stroke-width="0"/><path d="M287.16463,326.26327c-11.02359,0 -19.95998,-8.93639 -19.95998,-19.95998c0,-11.02359 8.93639,-19.95998 19.95998,-19.95998c11.02359,0 19.95998,8.93639 19.95998,19.95998c0,11.02359 -8.93639,19.95998 -19.95998,19.95998z" data-paper-data="{&quot;index&quot;:null}" fill="none" stroke="#000000" stroke-width="5"/><path d="M258.32084,306.87332c0,-5.02509 1.28506,-9.75004 3.5445,-13.86414c0.38692,-0.70453 -6.86054,-6.92549 -6.41803,-7.59263c1.92069,-2.89571 5.84034,-6.38242 8.65131,-8.41679c0.91163,-0.65977 8.03631,5.22469 9.0238,4.67328c1.9428,-1.08483 4.19489,-0.08013 4.52322,-3.91626c0.33269,-3.88712 -0.4663,-10.58219 -0.16702,-10.58219c4.58948,0 8.96144,-0.80806 13.76947,0.99846c4.79626,1.8021 -1.52112,7.77417 1.83854,10.73319c2.19605,1.93417 7.078,2.33708 10.47518,1.22301c3.23634,-1.06133 4.98576,-3.65522 7.26623,-1.48373c1.49126,1.41999 5.84138,2.84928 6.60383,6.15543c0.52914,2.29449 -5.30016,5.17399 -5.50368,7.9231c-0.41404,5.59308 4.07843,11.20337 4.07843,14.14926c0,0.22195 9.17989,0.72667 8.92667,1.44941c-0.90274,2.57664 2.05506,6.50487 -3.36692,11.68895c-2.30692,2.20569 -5.16028,-0.53891 -8.98916,1.65201c-0.95003,0.54362 -2.93583,3.54252 -2.45108,5.32793c1.1929,4.39359 7.03138,9.51152 4.87546,11.46588c-1.38568,1.25613 -6.91156,7.03844 -11.50313,5.29995c-3.07741,-1.16519 -5.83285,-10.00859 -6.27683,-9.84338c-1.14781,0.42711 -0.73372,10.14905 -1.94527,10.42882c-2.09399,0.48357 -8.21314,-0.53803 -10.45407,-0.53803c-2.23947,0 -0.33897,-7.78025 -2.96772,-8.45239c-1.28697,-0.32905 -5.04042,-1.5405 -6.01998,-1.88288c-1.0013,-0.34998 -6.04446,11.23414 -6.27129,11.11797c-2.13795,-1.09501 -9.44275,-7.13201 -11.23,-8.70372c-0.77662,-0.68296 8.27533,-8.75068 7.57615,-9.51243c-1.2084,-1.31653 -2.29606,-2.74566 -3.24545,-4.26985c-0.66161,-1.06217 -9.13187,-1.21263 -9.65324,-2.36117c-1.35687,-2.98912 -4.13443,-7.63425 -4.39655,-11.06356c-0.05623,-0.7357 9.70668,-1.0534 9.70668,-1.80351zM286.82171,326.26327c11.02359,0 19.95998,-8.93639 19.95998,-19.95998c0,-11.02359 -8.93639,-19.95998 -19.95998,-19.95998c-11.02359,0 -19.95998,8.93639 -19.95998,19.95998c0,11.02359 8.93639,19.95998 19.95998,19.95998z" fill="none" stroke="#3f3232" stroke-width="5"/></g><g font-family="Pixel" font-weight="normal" font-size="40" text-anchor="start"><text transform="translate(239.26762,258.90353) scale(0.60134,0.60134)" font-size="40" xml:space="preserve" fill="#000000" fill-rule="nonzero" stroke="#000000" stroke-width="10" stroke-linecap="butt" stroke-linejoin="miter" stroke-miterlimit="10" stroke-dasharray="" stroke-dashoffset="0" font-family="Pixel" font-weight="normal" text-anchor="start" style="mix-blend-mode: normal"><tspan x="0" dy="0">SETTINGS</tspan></text><text transform="translate(239.26762,258.90354) scale(0.60134,0.60134)" font-size="40" xml:space="preserve" fill="#ffffff" fill-rule="nonzero" stroke="#ffffff" stroke-width="2" stroke-linecap="butt" stroke-linejoin="miter" stroke-miterlimit="10" stroke-dasharray="" stroke-dashoffset="0" font-family="Pixel" font-weight="normal" text-anchor="start" style="mix-blend-mode: normal"><tspan x="0" dy="0">SETTINGS</tspan></text></g><path d="M235.49205,230.98584c2.40897,-8.84266 5.2452,-16.74181 11.84635,-21.23413c5.46259,-3.71749 14.21609,-4.81689 21.06676,-4.73631c30.25692,0.35589 78.523,0.92551 95.8156,1.14032c6.12466,0.07609 12.45231,2.25349 15.6671,6.26459c3.64425,4.54693 3.67512,11.3213 1.92853,17.71128c-8.35334,30.56099 -18.83921,38.47022 -34.36558,95.274c-2.00858,7.34847 -5.93487,16.17838 -12.32637,20.58564c-7.18419,4.95386 -17.12559,5.0348 -24.0349,4.99189c-18.32547,-0.11383 -66.04498,-0.42707 -94.06153,-0.60109c-0.89078,-0.00553 -11.46599,-2.38331 -15.47625,-10.47491c-2.1031,-4.24348 1.25412,-18.61829 1.40412,-19.1689c0,0 17.31732,-33.88809 32.53617,-89.75238z" fill="#000000" stroke="#000000" stroke-width="0"/><text transform="translate(219.09656,343.15253) rotate(-37.59577) scale(0.51663,0.51663)" font-size="40" xml:space="preserve" fill="#ffffff" fill-rule="nonzero" stroke="none" stroke-width="1" stroke-linecap="butt" stroke-linejoin="miter" stroke-miterlimit="10" stroke-dasharray="" stroke-dashoffset="0" font-family="Pixel" font-weight="normal" text-anchor="start" style="mix-blend-mode: normal"><tspan x="0" dy="0">COMMING SOOON</tspan></text></g></g></svg>