<svg version="1.1" xmlns="http://www.w3.org/2000/svg" xmlns:xlink="http://www.w3.org/1999/xlink" width="73.65067" height="73.65067" viewBox="0,0,73.65067,73.65067"><defs><radialGradient cx="331.29282" cy="157.25085" r="36.82533" gradientUnits="userSpaceOnUse" id="color-1"><stop offset="0" stop-color="#93ff52"/><stop offset="1" stop-color="#61ff00"/></radialGradient></defs><g transform="translate(-283.17467,-143.17467)"><g data-paper-data="{&quot;isPaintingLayer&quot;:true}" fill-rule="nonzero" stroke-linecap="butt" stroke-linejoin="miter" stroke-miterlimit="10" stroke-dasharray="" stroke-dashoffset="0" style="mix-blend-mode: normal"><path d="M283.17467,180c0,-2.42634 0.23466,-4.79788 0.68252,-7.09316c0.46613,-2.3889 9.88655,0.42243 7.92375,-2.53428c-0.3291,-0.49575 0.08911,-3.22039 -1.19062,-4.78998c-0.75562,-0.92677 -3.0238,-0.83711 -3.89935,-1.30681c-2.21436,-1.18791 2.37409,-4.41581 3.87055,-6.40352c0.68608,-0.91131 1.61713,0.79781 3.64985,1.03178c1.72114,0.19811 4.56549,-1.06142 5.26762,-1.72217c0.77196,-0.72647 3.28429,-3.11201 3.1159,-4.62103c-0.22075,-1.97831 -3.18661,-3.12732 -2.00027,-3.86431c5.63466,-3.50041 12.28396,-5.52186 19.40539,-5.52186c4.50592,0 8.82282,0.80928 12.81329,2.29041c1.48244,0.55023 -11.21356,4.72654 -9.82827,5.45517c1.08204,0.56913 2.56076,2.37898 5.92973,2.46083c5.96355,0.14489 14.83478,-1.60695 16.39283,-0.13248c7.09285,6.71235 11.51775,16.21514 11.51775,26.75141c0,20.33806 -16.48727,36.82533 -36.82533,36.82533c-11.57272,0 -21.89862,-5.33826 -28.6496,-13.68668c-0.53354,-0.65978 -0.48368,-4.68878 2.36021,-5.06288c2.76395,-0.36358 4.91952,-1.42163 4.79714,-2.82728c-0.08278,-0.95082 -2.23005,-2.18845 -2.02317,-2.98862c0.73875,-2.85724 -1.79557,-6.02971 -2.21748,-6.82632c-0.43062,-0.81304 -5.32852,5.29676 -7.56917,7.67417c-0.67811,0.7195 -0.68488,1.09714 -0.79116,0.83758c-1.76122,-4.30129 -2.73211,-9.00991 -2.73211,-13.94531z" fill="url(#color-1)" stroke="none" stroke-width="0"/><path d="M317.11506,170.67164v19.14917h-3.72345v-19.14917z" fill="none" stroke="#ff0000" stroke-width="7.5"/><path d="M341.66528,174.10667c0,1.27612 -3.06223,4.34477 -3.06223,7.0667c0,4.397 3.06223,8.64745 3.06223,8.64745h-3.72345v-19.14917c0,0 1.2113,0 1.82577,0c0.33416,0 -1.50379,5.00895 -1.09351,5.74352c0.35887,0.64253 2.99119,-3.03657 2.99119,-2.30849z" fill="none" stroke="#ff0000" stroke-width="7.5"/><path d="M305.67875,180.74007h19.14917v-0.51657l-19.14917,0z" fill="none" stroke="#ff0000" stroke-width="7.5"/><path d="M308.30045,173.89417l13.54051,13.54051l0.36527,-0.36527l-13.54051,-13.54051z" fill="none" stroke="#ff0000" stroke-width="7.5"/><path d="M308.66572,187.43467l13.54051,-13.54051l-0.36527,-0.36527l-13.54051,13.54051z" fill="none" stroke="#ff0000" stroke-width="7.5"/></g></g></svg>